<svg width="290" height="294" viewBox="0 0 290 294" fill="none" xmlns="http://www.w3.org/2000/svg">
<path d="M124.378 104.846L119.374 102.754V136.493L128.449 114.598C129.98 110.787 128.225 106.416 124.378 104.846V104.846ZM51.554 118.671L70.0775 163.32C70.6229 164.679 71.5533 165.848 72.7543 166.684C73.9552 167.521 75.3743 167.988 76.8371 168.028C77.808 168.028 78.8164 167.841 79.7874 167.43L107.311 156.034C110.112 154.876 111.83 152.111 111.905 149.346C111.942 148.375 111.755 147.291 111.419 146.32L92.7463 101.67C92.2185 100.303 91.2914 99.1262 90.0858 98.2932C88.8802 97.4602 87.4519 97.0096 85.9868 97C85.0158 97 84.0448 97.2242 83.1111 97.5605L55.6247 108.956C53.7976 109.705 52.3424 111.149 51.5791 112.97C50.8158 114.792 50.8067 116.842 51.554 118.671V118.671ZM111.867 104.473C111.867 102.491 111.08 100.59 109.68 99.1887C108.279 97.7873 106.379 97 104.398 97H98.9831L111.867 128.161" fill="white"/>
<path d="M150.28 121.68C150.66 121.98 151.31 122.39 152.23 122.91C153.17 123.43 154.06 123.69 154.9 123.69C155.76 123.69 156.19 123.36 156.19 122.7C156.19 122.4 156.07 122.14 155.83 121.92C155.59 121.68 155.15 121.41 154.51 121.11C153.87 120.81 153.39 120.58 153.07 120.42C152.75 120.24 152.32 119.96 151.78 119.58C151.26 119.18 150.86 118.77 150.58 118.35C149.78 117.21 149.38 115.76 149.38 114C149.38 112.24 150.03 110.76 151.33 109.56C152.65 108.34 154.37 107.73 156.49 107.73C157.93 107.73 159.26 107.89 160.48 108.21C161.7 108.51 162.33 108.91 162.37 109.41C162.37 109.47 162.37 109.53 162.37 109.59C162.37 110.29 162.15 111.18 161.71 112.26C161.27 113.32 160.96 113.91 160.78 114.03C159.5 113.37 158.35 113.04 157.33 113.04C156.33 113.04 155.83 113.4 155.83 114.12C155.83 114.56 156.2 114.95 156.94 115.29C157.1 115.37 157.33 115.48 157.63 115.62C157.93 115.76 158.27 115.93 158.65 116.13C159.05 116.31 159.47 116.55 159.91 116.85C160.37 117.13 160.86 117.51 161.38 117.99C162.44 118.99 162.97 120.31 162.97 121.95C162.97 124.09 162.38 125.84 161.2 127.2C160.02 128.56 158.2 129.26 155.74 129.3C154.54 129.3 153.45 129.2 152.47 129C151.51 128.8 150.67 128.41 149.95 127.83C149.23 127.25 148.87 126.55 148.87 125.73C148.87 124.91 149.02 124.1 149.32 123.3C149.62 122.48 149.94 121.94 150.28 121.68ZM170.208 121.56C170.208 123.52 170.948 124.5 172.428 124.5C173.388 124.5 174.188 124.31 174.828 123.93C175.128 123.93 175.368 124.45 175.548 125.49C175.748 126.51 175.848 127.21 175.848 127.59C175.848 127.95 175.798 128.19 175.698 128.31C174.638 128.97 173.188 129.3 171.348 129.3C169.508 129.3 167.938 128.62 166.638 127.26C165.358 125.88 164.718 124.01 164.718 121.65C164.718 119.27 165.348 117.35 166.608 115.89C167.888 114.43 169.578 113.7 171.678 113.7C173.798 113.7 175.268 114.21 176.088 115.23C176.268 115.45 176.358 115.78 176.358 116.22C176.358 116.64 176.278 117.16 176.118 117.78C175.758 119.06 175.288 119.8 174.708 120C174.628 120.02 174.508 120.03 174.348 120.03C174.208 120.03 174.028 119.91 173.808 119.67C173.028 118.89 172.398 118.5 171.918 118.5C171.458 118.5 171.058 118.74 170.718 119.22C170.378 119.7 170.208 120.48 170.208 121.56ZM183.012 128.79C183.012 128.97 182.172 129.06 180.492 129.06C178.832 129.06 178.002 128.92 178.002 128.64V108.09C178.002 107.95 178.312 107.85 178.932 107.79C179.552 107.73 180.072 107.7 180.492 107.7C182.172 107.7 183.012 107.88 183.012 108.24V114.24C184.132 113.9 184.982 113.73 185.562 113.73C187.082 113.73 188.282 114.14 189.162 114.96C190.042 115.76 190.482 117.26 190.482 119.46V128.76C190.482 128.94 189.702 129.03 188.142 129.03C186.382 128.97 185.502 128.87 185.502 128.73V119.91C185.502 118.93 185.182 118.44 184.542 118.44C184.102 118.44 183.592 118.65 183.012 119.07V128.79ZM194.322 127.23C193.082 125.85 192.462 123.94 192.462 121.5C192.462 119.06 193.082 117.15 194.322 115.77C195.582 114.39 197.272 113.7 199.392 113.7C201.512 113.7 203.192 114.39 204.432 115.77C205.672 117.15 206.292 119.06 206.292 121.5C206.292 123.94 205.672 125.85 204.432 127.23C203.192 128.61 201.512 129.3 199.392 129.3C197.272 129.3 195.582 128.61 194.322 127.23ZM199.392 118.71C198.272 118.71 197.712 119.63 197.712 121.47C197.712 123.31 198.272 124.23 199.392 124.23C200.532 124.23 201.102 123.31 201.102 121.47C201.102 119.63 200.532 118.71 199.392 118.71ZM209.703 127.23C208.463 125.85 207.843 123.94 207.843 121.5C207.843 119.06 208.463 117.15 209.703 115.77C210.963 114.39 212.653 113.7 214.772 113.7C216.893 113.7 218.573 114.39 219.813 115.77C221.053 117.15 221.673 119.06 221.673 121.5C221.673 123.94 221.053 125.85 219.813 127.23C218.573 128.61 216.893 129.3 214.772 129.3C212.653 129.3 210.963 128.61 209.703 127.23ZM214.772 118.71C213.653 118.71 213.093 119.63 213.093 121.47C213.093 123.31 213.653 124.23 214.772 124.23C215.913 124.23 216.483 123.31 216.483 121.47C216.483 119.63 215.913 118.71 214.772 118.71ZM229.253 128.76C229.253 128.94 228.233 129.03 226.193 129.03C224.593 129.01 223.793 128.93 223.793 128.79V108.36C223.793 108.06 224.763 107.91 226.703 107.91C228.403 107.97 229.253 108.07 229.253 108.21V128.76ZM158.08 132.73C159.54 132.73 160.82 132.94 161.92 133.36C163.04 133.76 163.6 134.31 163.6 135.01C163.6 135.71 163.33 136.58 162.79 137.62C162.27 138.64 161.83 139.15 161.47 139.15C161.37 139.15 161.25 139.1 161.11 139C160.99 138.88 160.69 138.76 160.21 138.64C159.75 138.5 159.35 138.43 159.01 138.43C157.85 138.43 156.91 138.84 156.19 139.66C155.49 140.48 155.14 141.74 155.14 143.44C155.14 145.12 155.5 146.37 156.22 147.19C156.96 148.01 157.89 148.42 159.01 148.42C159.47 148.42 159.98 148.36 160.54 148.24C161.12 148.1 161.53 147.91 161.77 147.67C161.81 147.63 161.89 147.61 162.01 147.61C162.13 147.61 162.35 147.84 162.67 148.3C163.01 148.74 163.32 149.33 163.6 150.07C163.88 150.79 164.02 151.35 164.02 151.75C164.02 152.53 163.42 153.15 162.22 153.61C161.02 154.07 159.6 154.3 157.96 154.3C155.32 154.3 153.15 153.37 151.45 151.51C149.75 149.65 148.9 147.03 148.9 143.65C148.9 140.25 149.77 137.58 151.51 135.64C153.27 133.7 155.46 132.73 158.08 132.73ZM171.176 153.79C171.176 153.97 170.336 154.06 168.656 154.06C166.996 154.06 166.166 153.92 166.166 153.64V133.09C166.166 132.95 166.476 132.85 167.096 132.79C167.716 132.73 168.236 132.7 168.656 132.7C170.336 132.7 171.176 132.88 171.176 133.24V139.24C172.296 138.9 173.146 138.73 173.726 138.73C175.246 138.73 176.446 139.14 177.326 139.96C178.206 140.76 178.646 142.26 178.646 144.46V153.76C178.646 153.94 177.866 154.03 176.306 154.03C174.546 153.97 173.666 153.87 173.666 153.73V144.91C173.666 143.93 173.346 143.44 172.706 143.44C172.266 143.44 171.756 143.65 171.176 144.07V153.79ZM182.486 152.23C181.246 150.85 180.626 148.94 180.626 146.5C180.626 144.06 181.246 142.15 182.486 140.77C183.746 139.39 185.436 138.7 187.556 138.7C189.676 138.7 191.356 139.39 192.596 140.77C193.836 142.15 194.456 144.06 194.456 146.5C194.456 148.94 193.836 150.85 192.596 152.23C191.356 153.61 189.676 154.3 187.556 154.3C185.436 154.3 183.746 153.61 182.486 152.23ZM187.556 143.71C186.436 143.71 185.876 144.63 185.876 146.47C185.876 148.31 186.436 149.23 187.556 149.23C188.696 149.23 189.266 148.31 189.266 146.47C189.266 144.63 188.696 143.71 187.556 143.71ZM202.067 153.82C202.067 153.98 201.147 154.06 199.307 154.06C197.487 154.06 196.577 153.99 196.577 153.85V139.12C196.577 138.98 197.487 138.91 199.307 138.91C201.147 138.91 202.067 138.97 202.067 139.09V153.82ZM202.067 137.32C202.067 137.46 201.147 137.53 199.307 137.53C197.487 137.53 196.577 137.47 196.577 137.35V133.03C196.577 132.83 197.487 132.73 199.307 132.73C201.147 132.73 202.067 132.79 202.067 132.91V137.32ZM209.7 146.56C209.7 148.52 210.44 149.5 211.92 149.5C212.88 149.5 213.68 149.31 214.32 148.93C214.62 148.93 214.86 149.45 215.04 150.49C215.24 151.51 215.34 152.21 215.34 152.59C215.34 152.95 215.29 153.19 215.19 153.31C214.13 153.97 212.68 154.3 210.84 154.3C209 154.3 207.43 153.62 206.13 152.26C204.85 150.88 204.21 149.01 204.21 146.65C204.21 144.27 204.84 142.35 206.1 140.89C207.38 139.43 209.07 138.7 211.17 138.7C213.29 138.7 214.76 139.21 215.58 140.23C215.76 140.45 215.85 140.78 215.85 141.22C215.85 141.64 215.77 142.16 215.61 142.78C215.25 144.06 214.78 144.8 214.2 145C214.12 145.02 214 145.03 213.84 145.03C213.7 145.03 213.52 144.91 213.3 144.67C212.52 143.89 211.89 143.5 211.41 143.5C210.95 143.5 210.55 143.74 210.21 144.22C209.87 144.7 209.7 145.48 209.7 146.56ZM228.835 153.19C227.575 153.93 225.955 154.3 223.975 154.3C221.995 154.3 220.325 153.63 218.965 152.29C217.605 150.93 216.925 149.06 216.925 146.68C216.925 144.28 217.575 142.35 218.875 140.89C220.195 139.43 221.855 138.7 223.855 138.7C225.855 138.7 227.395 139.21 228.475 140.23C229.575 141.25 230.125 142.49 230.125 143.95C230.125 147.19 228.265 148.81 224.545 148.81H222.475C222.475 149.41 222.635 149.83 222.955 150.07C223.295 150.29 223.785 150.4 224.425 150.4C225.825 150.4 227.155 150.08 228.415 149.44C228.435 149.42 228.525 149.56 228.685 149.86C229.165 150.72 229.405 151.45 229.405 152.05C229.405 152.63 229.215 153.01 228.835 153.19ZM225.085 144.52C225.085 143.68 224.675 143.26 223.855 143.26C223.475 143.26 223.145 143.38 222.865 143.62C222.605 143.84 222.475 144.17 222.475 144.61V145.54H224.095C224.755 145.54 225.085 145.2 225.085 144.52Z" fill="#E7E7E7"/>
</svg>
